<svg xmlns="http://www.w3.org/2000/svg" viewBox="0 0 219.45 43.81"><defs><style>.cls-1{fill:#1d1d1b;}</style></defs><title>main-logo</title><g id="Layer_2" data-name="Layer 2"><g id="Layer_1-2" data-name="Layer 1"><path class="cls-1" d="M137.53,11a2.32,2.32,0,0,1-2.4,2.5,2,2,0,0,1-2.16-2,2.23,2.23,0,0,1,.46-1.36.36.36,0,0,0-.27-.1,2.15,2.15,0,0,0-1.71,1.28v-.14a3.89,3.89,0,0,1,3.37-2.78A2.45,2.45,0,0,1,137.53,11M133,23.66c-1.5-.21-2.33-.79-2.33-2.84V8.42l-.07-.07-5.93,1.91v.21a2.47,2.47,0,0,1,1.66,2.5v7.81c0,1.72-.23,2.54-1.21,2.79a3.14,3.14,0,0,1-.8.08v.24H133ZM1.81,4.07C4,4.38,4.73,5,4.73,7.92v12c0,2.5-.31,5-1.32,6.33A8.53,8.53,0,0,1,0,28.84l.11.35a17.9,17.9,0,0,0,7.15-3.33,8.43,8.43,0,0,0,2.46-6.33V3.79H1.81ZM28.36,20.36V8.55l-.07,0-6.45.66v.28c1.91.28,2.19.83,2.19,2.84V24l.1,0,6.46-.93v-.21l-1.15-.31c-.74-.21-1.08-.66-1.08-2.26m-9.69-1.77v-10l-.07,0-6.42.66v.28c1.91.28,2.12.83,2.12,2.84v7.23c0,3,1.38,4.62,4.27,4.62a5.11,5.11,0,0,0,4.66-2.92v-.14a3.58,3.58,0,0,1-2.09.56c-1.87,0-2.46-.83-2.46-3.06m19,2.19V4.89c0-1.39.07-3.4.1-4.82L37.74,0,31.67,1.88v.2a2.49,2.49,0,0,1,1.66,2.53V20.77c0,2.12-.38,2.64-2,2.88v.25h8.36v-.25c-1.49-.24-2-.83-2-2.88m9.19,0V13.24c0-1.39.07-3.4.1-4.83l-.06-.07-6.15,1.91v.17a6.78,6.78,0,0,1,.84.55,2.39,2.39,0,0,1,.93,2.12v7.67c0,2.12-.42,2.64-2,2.88v.25H49v-.25c-1.53-.24-2.12-.83-2.12-2.88m12.59-7.6-4.1.41v.24h8.09c0-2.78-2.09-5.31-5.9-5.45v.27c1.32.25,1.8,2.29,1.91,4.52m-.11,7.77c-3.19,0-5.14-2.43-5.14-6.28,0-3.51,1-5.52,2.43-5.94V8.45a7.86,7.86,0,0,0-6.77,8.09c0,4,2.53,7.64,7.29,7.64A7.12,7.12,0,0,0,64,19.07l-.2-.14a5.07,5.07,0,0,1-4.45,2m11.22-2.19V10.5h5.9V8.76h-5.9V4.9l-.38-.17L64.39,10v.49h1.84V20c0,3,1.6,4.13,4.16,4.13a6.84,6.84,0,0,0,5.41-2.71v-.17a8.46,8.46,0,0,1-2.43.35c-1.95,0-2.78-1-2.78-2.88m11.35,0V10.5h4.59l.35-1.74H82V4.9l-.38-.17-4,4.07V20c0,3,1.6,4.13,4.16,4.13a6.85,6.85,0,0,0,5.42-2.71v-.17a8.51,8.51,0,0,1-2.43.35c-2,0-2.78-1-2.78-2.88m15.17-5.58-4.1.41v.24h8.09c0-2.78-2.08-5.31-5.9-5.45v.27c1.32.25,1.8,2.29,1.91,4.52M97,20.94c-3.19,0-5.14-2.43-5.14-6.28,0-3.51,1-5.52,2.44-5.94V8.45a7.86,7.86,0,0,0-6.78,8.09c0,4,2.54,7.64,7.3,7.64a7.12,7.12,0,0,0,6.84-5.1l-.21-.14a5.07,5.07,0,0,1-4.45,2m12.37-2.27a2.76,2.76,0,0,0-2.76,2.75,2.65,2.65,0,0,0,2.76,2.69,2.72,2.72,0,0,0,2.8-2.69,2.77,2.77,0,0,0-2.8-2.75m54.33,2.09V12.88c0-2.67-.76-4.52-3.71-4.52a6.77,6.77,0,0,0-5.07,2.78v.11a5.51,5.51,0,0,1,2.05-.42c1.83,0,2.39.9,2.39,2.78V20.9c0,1.91-.45,2.5-1.95,2.75v.24h8.27v-.24c-1.57-.24-2-.76-2-2.88m-19.34.14V8.4l-.07-.07-5.93,1.91v.21A2.58,2.58,0,0,1,140,13v7.81c0,2.12-.42,2.64-2,2.88v.24h8.26v-.24c-1.45-.24-1.91-.83-1.91-2.75m9.68,0v-8c0-2.67-.79-4.52-3.7-4.52a6.71,6.71,0,0,0-5.08,2.78v.11a5.46,5.46,0,0,1,2-.42c1.88,0,2.4.9,2.4,2.78V20.9c0,1.91-.45,2.5-1.91,2.75v.24h8.13v-.24c-1.56-.24-1.85-.76-1.85-2.75m15.48-6.49a1.86,1.86,0,0,0,0-3.72,1.86,1.86,0,0,0,0,3.72m9.54,6.22V12.81c0-2.88-1.46-4.45-4.69-4.45A8.69,8.69,0,0,0,170,9.9V10c3.05,0,4.79.87,4.79,3v7.61c0,2.29,1.11,3.54,3.16,3.54a3.67,3.67,0,0,0,3.5-2.08v-.18a2.26,2.26,0,0,1-1,.24c-.9,0-1.32-.42-1.32-1.52M171,19.44a3.81,3.81,0,0,1,.56-2,5.87,5.87,0,0,1,2.33-1.32v-.24c-1.74.41-5,1.35-5.73,1.63a3.37,3.37,0,0,0-1.42,3.05,3.49,3.49,0,0,0,3.74,3.65,4.14,4.14,0,0,0,3.72-2.26v-.14a3,3,0,0,1-1.29.32c-1.32,0-1.91-.8-1.91-2.64m17.6,1.46V8.4l-.07-.07-5.94,1.91v.21a2.57,2.57,0,0,1,1.66,2.5v7.81c0,2.12-.41,2.64-2,2.88v.24h8.26v-.24c-1.45-.24-1.9-.83-1.9-2.75m10-.14V12.88c0-2.67-1.07-4.52-4-4.52a6.7,6.7,0,0,0-5.07,2.78v.11a6,6,0,0,1,2.15-.42c1.88,0,2.57.9,2.57,2.78V20.9c0,1.91-.45,2.5-1.91,2.75v.24h8.27v-.24c-1.6-.24-2-.76-2-2.88m7.35-5.45c0-3.06,1-5.42,2-6.25V8.78c-3.16,1-6.56,3.92-6.56,8.23,0,4,2.5,7.15,6.18,7.15a5.26,5.26,0,0,0,4.79-3.23v-.14a4.63,4.63,0,0,1-2.19.49c-2.18,0-4.27-1.7-4.27-6m12.4,7.36c-.7-.24-1-.62-1-2.19V4.92c0-1.39.07-3.4.1-4.83L217.29,0l-6.07,1.91v.17a3.52,3.52,0,0,1,.76.52,2.79,2.79,0,0,1,.94,2.4V8.71a7.1,7.1,0,0,0-2.29-.38,7.35,7.35,0,0,0-1.56.17v.24A3.48,3.48,0,0,1,211.84,10a6,6,0,0,1,1.08,3.93V24.1l.1.07,6.43-.94V23a11.5,11.5,0,0,1-1.18-.31m-103.59.94v.27h9L115,3.79h-.47l-2.73,5.53,4.25,9.56a10.12,10.12,0,0,1,1,2.82c0,1.32-.83,1.81-2.39,1.91"/><path class="cls-1" d="M11,39.65H9.9a.13.13,0,0,1-.13-.13v-.58a.13.13,0,0,1,.13-.13H13a.13.13,0,0,1,.13.13v.58a.13.13,0,0,1-.13.13H11.91v4a.14.14,0,0,1-.13.13h-.66a.14.14,0,0,1-.13-.13Z"/><path class="cls-1" d="M15.76,38.94a.14.14,0,0,1,.13-.13h.66a.13.13,0,0,1,.13.13v1.87H19V38.94a.13.13,0,0,1,.13-.13h.65a.14.14,0,0,1,.13.13v4.67a.14.14,0,0,1-.13.13h-.65a.13.13,0,0,1-.13-.13V41.66h-2.3v1.95a.13.13,0,0,1-.13.13h-.66a.14.14,0,0,1-.13-.13Z"/><path class="cls-1" d="M23.09,38.94a.13.13,0,0,1,.13-.13h2.87a.13.13,0,0,1,.13.13v.58a.13.13,0,0,1-.13.13H24v1.16h1.74a.14.14,0,0,1,.13.13v.59a.13.13,0,0,1-.13.13H24V42.9h2.09a.13.13,0,0,1,.13.13v.58a.13.13,0,0,1-.13.13H23.22a.13.13,0,0,1-.13-.13Z"/><path class="cls-1" d="M32.6,38.94a.13.13,0,0,1,.13-.13h1.66a1.57,1.57,0,1,1,0,3.15h-.88v1.66a.14.14,0,0,1-.13.13h-.65a.13.13,0,0,1-.13-.13Zm1.74,2.15a.73.73,0,0,0,.73-.73.7.7,0,0,0-.73-.68h-.82v1.42Z"/><path class="cls-1" d="M38.67,38.94a.13.13,0,0,1,.13-.13h2.87a.13.13,0,0,1,.13.13v.58a.13.13,0,0,1-.13.13H39.59v1.16h1.74a.14.14,0,0,1,.13.13v.59a.13.13,0,0,1-.13.13H39.59V42.9h2.09a.13.13,0,0,1,.13.13v.58a.13.13,0,0,1-.13.13H38.81a.13.13,0,0,1-.13-.13Z"/><path class="cls-1" d="M44.73,38.94a.13.13,0,0,1,.13-.13h2a1.53,1.53,0,0,1,1.54,1.52,1.56,1.56,0,0,1-1,1.43l1,1.79a.13.13,0,0,1-.12.2h-.74a.12.12,0,0,1-.11-.06l-.94-1.87h-.78v1.8a.14.14,0,0,1-.13.13h-.65a.13.13,0,0,1-.13-.13Zm2.07,2.12a.72.72,0,0,0,.7-.72.7.7,0,0,0-.7-.68H45.65v1.4Z"/><path class="cls-1" d="M51,43.05l.25-.44a.16.16,0,0,1,.24,0A2.35,2.35,0,0,0,52.6,43a.59.59,0,0,0,.64-.54c0-.36-.3-.61-.9-.85S51,40.92,51,40.09a1.41,1.41,0,0,1,1.59-1.36,2.47,2.47,0,0,1,1.41.47.17.17,0,0,1,0,.23l-.27.4a.19.19,0,0,1-.25.09,2.3,2.3,0,0,0-1-.39.56.56,0,0,0-.62.49c0,.33.26.56.83.79s1.47.68,1.47,1.59a1.49,1.49,0,0,1-1.62,1.4,2.27,2.27,0,0,1-1.55-.55c-.06-.06-.1-.1,0-.21"/><path class="cls-1" d="M59.24,38.73a2.54,2.54,0,1,1-2.53,2.55,2.54,2.54,0,0,1,2.53-2.55m0,4.16a1.62,1.62,0,1,0-1.62-1.62,1.63,1.63,0,0,0,1.62,1.62"/><path class="cls-1" d="M64.61,38.86a.13.13,0,0,1,.13-.13h.18l2.94,3.12h0V38.94A.13.13,0,0,1,68,38.8h.65a.14.14,0,0,1,.13.13v4.75a.13.13,0,0,1-.13.13h-.17l-2.95-3.24h0v3a.13.13,0,0,1-.13.13h-.64a.14.14,0,0,1-.13-.13Z"/><path class="cls-1" d="M71.32,43.56l2.19-4.75a.13.13,0,0,1,.12-.08h.07a.12.12,0,0,1,.12.08L76,43.56a.12.12,0,0,1-.12.18h-.61a.2.2,0,0,1-.21-.14l-.35-.76H72.6l-.35.76a.21.21,0,0,1-.21.14h-.61a.12.12,0,0,1-.12-.18m3-1.5-.71-1.55h0l-.69,1.55Z"/><path class="cls-1" d="M78.53,38.94a.13.13,0,0,1,.13-.13h.65a.14.14,0,0,1,.13.13v4h1.8a.13.13,0,0,1,.13.13v.58a.13.13,0,0,1-.13.13H78.67a.13.13,0,0,1-.13-.13Z"/><path class="cls-1" d="M87.46,38.94a.13.13,0,0,1,.13-.13h1.66a1.57,1.57,0,1,1,0,3.15h-.88v1.66a.14.14,0,0,1-.13.13h-.65a.13.13,0,0,1-.13-.13Zm1.74,2.15a.73.73,0,0,0,.73-.73.7.7,0,0,0-.73-.68h-.82v1.42Z"/><path class="cls-1" d="M93.54,38.94a.13.13,0,0,1,.13-.13h2a1.53,1.53,0,0,1,1.54,1.52,1.56,1.56,0,0,1-1,1.43l1,1.79a.13.13,0,0,1-.12.2h-.74a.12.12,0,0,1-.11-.06l-.94-1.87h-.78v1.8a.14.14,0,0,1-.13.13h-.65a.13.13,0,0,1-.13-.13Zm2.08,2.12a.72.72,0,0,0,.7-.72.7.7,0,0,0-.7-.68H94.46v1.4Z"/><path class="cls-1" d="M102.32,38.73a2.54,2.54,0,1,1-2.53,2.55,2.54,2.54,0,0,1,2.53-2.55m0,4.16a1.62,1.62,0,1,0-1.62-1.62,1.63,1.63,0,0,0,1.62,1.62"/><path class="cls-1" d="M107.69,38.94a.13.13,0,0,1,.13-.13h2.87a.13.13,0,0,1,.13.13v.58a.13.13,0,0,1-.13.13h-2.09V41h1.74a.14.14,0,0,1,.13.13v.58a.14.14,0,0,1-.13.13h-1.74v1.79a.14.14,0,0,1-.13.13h-.65a.13.13,0,0,1-.13-.13Z"/><path class="cls-1" d="M113.57,38.94a.13.13,0,0,1,.13-.13h2.87a.13.13,0,0,1,.13.13v.58a.13.13,0,0,1-.13.13h-2.09v1.16h1.74a.14.14,0,0,1,.13.13v.59a.13.13,0,0,1-.13.13h-1.74V42.9h2.09a.13.13,0,0,1,.13.13v.58a.13.13,0,0,1-.13.13H113.7a.13.13,0,0,1-.13-.13Z"/><path class="cls-1" d="M119.33,43.05l.25-.44a.16.16,0,0,1,.24,0,2.35,2.35,0,0,0,1.07.44.59.59,0,0,0,.64-.54c0-.36-.3-.61-.9-.85s-1.33-.69-1.33-1.52a1.41,1.41,0,0,1,1.59-1.36,2.46,2.46,0,0,1,1.41.47.17.17,0,0,1,0,.23l-.27.4a.19.19,0,0,1-.25.09,2.3,2.3,0,0,0-1-.39.56.56,0,0,0-.62.49c0,.33.26.56.83.79s1.47.68,1.47,1.59a1.49,1.49,0,0,1-1.62,1.4,2.27,2.27,0,0,1-1.55-.55c-.06-.06-.1-.1,0-.21"/><path class="cls-1" d="M125.06,43.05l.25-.44a.16.16,0,0,1,.24,0,2.34,2.34,0,0,0,1.07.44.59.59,0,0,0,.64-.54c0-.36-.3-.61-.9-.85S125,40.92,125,40.09a1.41,1.41,0,0,1,1.59-1.36,2.47,2.47,0,0,1,1.41.47.17.17,0,0,1,0,.23l-.27.4a.19.19,0,0,1-.25.09,2.3,2.3,0,0,0-1-.39A.56.56,0,0,0,126,40c0,.33.26.56.83.79s1.47.68,1.47,1.59a1.49,1.49,0,0,1-1.62,1.4,2.27,2.27,0,0,1-1.55-.55c-.06-.06-.1-.1,0-.21"/><rect class="cls-1" x="131.08" y="38.8" width="0.92" height="4.94" rx="0.13" ry="0.13"/><path class="cls-1" d="M137.37,38.73a2.54,2.54,0,1,1-2.53,2.55,2.54,2.54,0,0,1,2.53-2.55m0,4.16a1.62,1.62,0,1,0-1.62-1.62,1.63,1.63,0,0,0,1.62,1.62"/><path class="cls-1" d="M142.74,38.86a.13.13,0,0,1,.13-.13H143L146,41.85h0V38.94a.13.13,0,0,1,.13-.13h.65a.14.14,0,0,1,.13.13v4.75a.13.13,0,0,1-.13.13h-.17l-2.95-3.24h0v3a.13.13,0,0,1-.13.13h-.64a.14.14,0,0,1-.13-.13Z"/><path class="cls-1" d="M149.45,43.56l2.19-4.75a.13.13,0,0,1,.12-.08h.07a.12.12,0,0,1,.12.08l2.17,4.75a.12.12,0,0,1-.12.18h-.61a.2.2,0,0,1-.2-.14l-.35-.76h-2.11l-.35.76a.21.21,0,0,1-.21.14h-.61a.12.12,0,0,1-.12-.18m3-1.5-.71-1.55h0l-.69,1.55Z"/><path class="cls-1" d="M156.68,38.94a.13.13,0,0,1,.13-.13h.65a.14.14,0,0,1,.13.13v4h1.8a.13.13,0,0,1,.13.13v.58a.13.13,0,0,1-.13.13h-2.58a.13.13,0,0,1-.13-.13Z"/><path class="cls-1" d="M165.32,43.05l.25-.44a.16.16,0,0,1,.24,0,2.35,2.35,0,0,0,1.07.44.59.59,0,0,0,.64-.54c0-.36-.3-.61-.9-.85s-1.33-.69-1.33-1.52a1.41,1.41,0,0,1,1.59-1.36,2.47,2.47,0,0,1,1.41.47.17.17,0,0,1,0,.23l-.27.4a.19.19,0,0,1-.25.09,2.3,2.3,0,0,0-1-.39.56.56,0,0,0-.62.49c0,.33.26.56.83.79s1.47.68,1.47,1.59a1.49,1.49,0,0,1-1.62,1.4,2.27,2.27,0,0,1-1.55-.55c-.06-.06-.1-.1,0-.21"/><path class="cls-1" d="M171.34,39a.17.17,0,0,1,.17-.17h.62a.17.17,0,0,1,.17.17v1.9l1.78-2a.17.17,0,0,1,.13-.07h.71a.15.15,0,0,1,.11.25l-1.84,2.07,2,2.36a.15.15,0,0,1-.13.25h-.77a.16.16,0,0,1-.13,0l-1.84-2.27v2.15a.17.17,0,0,1-.17.17h-.62a.17.17,0,0,1-.17-.17Z"/><rect class="cls-1" x="177.84" y="38.8" width="0.92" height="4.94" rx="0.13" ry="0.13"/><path class="cls-1" d="M181.95,38.86a.13.13,0,0,1,.13-.13h.18l2.94,3.12h0V38.94a.13.13,0,0,1,.13-.13H186a.14.14,0,0,1,.13.13v4.75a.13.13,0,0,1-.13.13h-.17l-2.95-3.24h0v3a.13.13,0,0,1-.13.13h-.64a.14.14,0,0,1-.13-.13Z"/><path class="cls-1" d="M191.49,38.73a2.39,2.39,0,0,1,1.71.66.13.13,0,0,1,0,.2l-.43.44a.11.11,0,0,1-.18,0,1.67,1.67,0,0,0-1.09-.42,1.64,1.64,0,0,0,0,3.27,1.7,1.7,0,0,0,1.08-.4.13.13,0,0,1,.18,0l.44.45a.13.13,0,0,1,0,.19,2.42,2.42,0,0,1-1.71.68,2.54,2.54,0,1,1,0-5.08"/><path class="cls-1" d="M195.39,43.56l2.19-4.75a.13.13,0,0,1,.12-.08h.07a.12.12,0,0,1,.12.08l2.17,4.75a.12.12,0,0,1-.12.18h-.61a.2.2,0,0,1-.21-.14l-.34-.76h-2.11l-.35.76a.21.21,0,0,1-.2.14h-.61a.12.12,0,0,1-.12-.18m3-1.5-.7-1.55h0L197,42.06Z"/><path class="cls-1" d="M202.61,38.94a.13.13,0,0,1,.13-.13h2a1.53,1.53,0,0,1,1.54,1.52,1.56,1.56,0,0,1-1,1.43l1,1.79a.13.13,0,0,1-.12.2h-.74a.12.12,0,0,1-.11-.06l-.94-1.87h-.78v1.8a.14.14,0,0,1-.13.13h-.65a.13.13,0,0,1-.13-.13Zm2.07,2.12a.72.72,0,0,0,.7-.72.7.7,0,0,0-.7-.68h-1.15v1.4Z"/><path class="cls-1" d="M209.21,38.94a.13.13,0,0,1,.13-.13h2.87a.13.13,0,0,1,.13.13v.58a.13.13,0,0,1-.13.13h-2.09v1.16h1.74a.14.14,0,0,1,.13.13v.59a.13.13,0,0,1-.13.13h-1.74V42.9h2.09a.13.13,0,0,1,.13.13v.58a.13.13,0,0,1-.13.13h-2.87a.13.13,0,0,1-.13-.13Z"/></g></g></svg>